<svg xmlns="http://www.w3.org/2000/svg" version="1.1" xmlns:xlink="http://www.w3.org/1999/xlink" width="1500" height="391" viewBox="0 0 1500 391"><svg xml:space="preserve" width="1500" height="391" data-version="2" data-id="lg_ZVVNtMQSDWF6mqKI5N" viewBox="0 0 423 391" x="0" y="0"><rect width="100%" height="100%" fill="transparent"></rect><path d="M211.513 21.389c3.162 0 6.323 1.034 8.68 3.104L294 88.298q2.644 2.299 4.771 2.299c2.3 0 3.909-2.184 3.909-6.208V68.984c0-6.323 5.173-11.497 11.496-11.497h28.741a11.496 11.496 0 0 1 11.497 11.497v60.126c0 6.323 3.85 14.83 8.68 18.969l35.868 31.04c4.771 4.139 3.507 7.473-2.874 7.473H365.91c-6.323 0-11.496 4.598-11.496 10.232v161.294a11.496 11.496 0 0 1-11.497 11.496H80.052a11.496 11.496 0 0 1-11.496-11.496V198.146a11.496 11.496 0 0 0-11.497-11.497H26.824c-6.323 0-7.588-3.391-2.817-7.472L202.776 24.55a13.22 13.22 0 0 1 8.622-3.161m0-17.245c-7.357 0-14.485 2.587-19.946 7.3L12.798 166.071c-11.726 10.174-8.852 21.268-7.645 24.372 1.15 3.162 6.208 13.45 21.728 13.45h24.487v154.225A28.741 28.741 0 0 0 80.11 386.86h262.808a28.741 28.741 0 0 0 28.741-28.74V203.835h24.487c15.52 0 20.58-10.289 21.729-13.45 1.15-3.162 4.08-14.198-7.645-24.373l-35.87-31.04a11.496 11.496 0 0 1-2.7-5.978V68.984a28.741 28.741 0 0 0-28.742-28.741h-28.74a28.741 28.741 0 0 0-27.132 19.256l-55.528-48.055a30.465 30.465 0 0 0-20.004-7.3"></path><path d="M275.227 215.638a44.864 44.864 0 0 0 0-89.638 44.819 44.819 0 0 0-42.891 57.727l-31.24 16.852a53.693 53.693 0 0 0-96.18 32.987 53.828 53.828 0 0 0 91.923 37.872l34.645 25.278a35.72 35.72 0 0 0 34.78 44.415 35.855 35.855 0 0 0 0-71.71c-10.309 0-19.586 4.392-26.175 11.429l-32.942-24.113a53.783 53.783 0 0 0 2.465-40.382l31.24-16.852a44.819 44.819 0 0 0 34.375 16.135m-8.963 71.71a17.928 17.928 0 1 1 0 35.856 17.928 17.928 0 0 1 0-35.855M158.698 269.42a35.855 35.855 0 1 1 0-71.71 35.855 35.855 0 0 1 0 71.71m116.53-125.493a26.914 26.914 0 1 1-.045 53.827 26.914 26.914 0 0 1 .044-53.827"></path></svg></svg>